<svg xmlns="http://www.w3.org/2000/svg" viewBox="0 0 39 37" width="39" height="37">
	<style>
		tspan { white-space:pre }
		.shp0 { fill: #ff431e } 
	</style>
	<path id="Shape 1" class="shp0" d="M28.01 35.81L10.9 35.81C7.09 35.81 6.06 34.55 6.06 30.64L6.06 12.86C6.06 12.31 6.51 11.86 7.06 11.86C7.62 11.86 8.07 12.31 8.07 12.86L8.07 30.64C8.07 33.49 8.19 33.82 10.9 33.82L28.01 33.82C30.72 33.82 31.22 33.49 31.22 30.64L31.22 12.86C31.22 12.31 31.67 11.86 32.23 11.86C32.78 11.86 33.23 12.31 33.23 12.86L33.23 30.64C33.23 34.55 31.82 35.81 28.01 35.81ZM23.67 35.31C23.39 35.31 23.17 35.09 23.17 34.81L23.17 25.35C23.17 24.35 22.98 24.33 21.87 24.33L17.04 24.33C15.93 24.33 16.12 24.35 16.12 25.35L16.12 34.81C16.12 35.09 15.9 35.31 15.62 35.31C15.34 35.31 15.12 35.09 15.12 34.81L15.12 25.35C15.12 23.63 15.58 23.34 17.04 23.34L21.87 23.34C23.33 23.34 24.18 23.63 24.18 25.35L24.18 34.81C24.18 35.09 23.95 35.31 23.67 35.31ZM2.85 15.83C2.54 15.83 2.24 15.69 2.04 15.43C1.71 14.99 1.8 14.37 2.24 14.04L18.85 1.64C19.29 1.31 19.92 1.4 20.26 1.84C20.59 2.28 20.5 2.91 20.06 3.24L3.45 15.63C3.27 15.77 3.06 15.83 2.85 15.83ZM36.06 15.83C35.85 15.83 35.64 15.77 35.46 15.63L18.85 3.24C18.4 2.91 18.32 2.28 18.65 1.84C18.98 1.4 19.62 1.31 20.06 1.64L36.67 14.04C37.11 14.37 37.2 14.99 36.87 15.43C36.67 15.69 36.37 15.83 36.06 15.83ZM10.59 20.34C10.31 20.34 10.08 20.12 10.08 19.84L10.08 14.17C10.08 14.01 10.06 13.87 10.18 13.77L16.74 8.75C16.96 8.58 17.26 8.62 17.42 8.84C17.59 9.06 17.64 9.37 17.41 9.54L11.09 14.41L11.09 19.84C11.09 20.12 10.86 20.34 10.59 20.34ZM10.59 22.84C10.31 22.84 10.08 22.61 10.08 22.34L10.08 21.84C10.08 21.56 10.31 21.34 10.59 21.34C10.86 21.34 11.09 21.56 11.09 21.84L11.09 22.34C11.09 22.61 10.86 22.84 10.59 22.84Z" />
</svg>