<svg xmlns="http://www.w3.org/2000/svg" viewBox="0 0 37 36" width="37" height="36">
	<style>
		tspan { white-space:pre }
		.shp0 { fill: #969696 } 
	</style>
	<path id="Shape 2" class="shp0" d="M26.87 34.22C26.32 34.22 25.77 34.08 25.28 33.82L18.49 30.19L11.69 33.82C10.59 34.4 9.21 34.33 8.2 33.64C7.16 32.92 6.62 31.68 6.83 30.46L8.16 22.56L2.42 16.87C1.54 16 1.24 14.73 1.64 13.57C2.04 12.41 3.05 11.58 4.28 11.4L12.09 10.25L15.49 3.25C16.03 2.13 17.21 1.4 18.49 1.4C19.76 1.4 20.94 2.13 21.48 3.25L24.88 10.25L32.69 11.4C33.92 11.58 34.93 12.41 35.33 13.56C35.73 14.73 35.44 16 34.55 16.87L28.81 22.56L30.14 30.46C30.35 31.68 29.81 32.92 28.77 33.63C28.21 34.02 27.55 34.22 26.87 34.22ZM18.49 28.06C18.65 28.06 18.81 28.1 18.96 28.18L26.23 32.07C26.67 32.3 27.23 32.27 27.64 31.99C28.04 31.72 28.24 31.25 28.16 30.79L26.75 22.39C26.69 22.07 26.8 21.74 27.03 21.51L33.14 15.46C33.47 15.13 33.58 14.65 33.43 14.21C33.28 13.77 32.88 13.45 32.39 13.37L24.06 12.14C23.73 12.09 23.44 11.89 23.3 11.59L19.67 4.12C19.46 3.68 19 3.4 18.49 3.4C17.98 3.4 17.51 3.68 17.29 4.12L13.67 11.59C13.53 11.89 13.24 12.09 12.92 12.14L4.58 13.37C4.1 13.45 3.69 13.77 3.54 14.21C3.39 14.65 3.5 15.13 3.83 15.46L9.94 21.52C10.17 21.74 10.28 22.07 10.22 22.39L8.81 30.79C8.73 31.25 8.93 31.72 9.34 31.99C9.74 32.27 10.3 32.3 10.75 32.06L18.01 28.18C18.16 28.1 18.32 28.06 18.49 28.06ZM7.49 15.88C7.25 15.88 7.03 15.7 6.99 15.46C6.95 15.19 7.13 14.93 7.41 14.89L7.74 14.83C8.02 14.78 8.27 14.97 8.32 15.24C8.36 15.52 8.17 15.77 7.9 15.82L7.57 15.87C7.54 15.87 7.51 15.88 7.49 15.88ZM9.33 15.58C9.09 15.58 8.88 15.41 8.84 15.17C8.78 14.9 8.96 14.64 9.24 14.59L14.67 13.55L16.72 8.88C16.83 8.63 17.12 8.51 17.38 8.63C17.63 8.74 17.75 9.03 17.64 9.28L15.48 14.19C15.42 14.34 15.28 14.45 15.12 14.48L9.43 15.57C9.39 15.58 9.36 15.58 9.33 15.58Z" />
</svg>