<svg xmlns="http://www.w3.org/2000/svg" viewBox="0 0 27 37" width="27" height="37">
	<style>
		tspan { white-space:pre }
		.shp0 { fill: #969696 } 
	</style>
	<path id="Shape 3" class="shp0" d="M14.04 23.08C9.31 23.08 5.85 14.46 5.85 9.97C5.85 5.44 9.52 1.75 14.04 1.75C18.55 1.75 22.22 5.44 22.22 9.97C22.22 14.46 18.77 23.08 14.04 23.08ZM14.04 3.75C10.62 3.75 7.84 6.54 7.84 9.97C7.84 13.86 11.03 21.08 14.04 21.08C17.05 21.08 20.23 13.86 20.23 9.97C20.23 6.54 17.45 3.75 14.04 3.75ZM9.85 10.71C9.58 10.71 9.35 10.48 9.35 10.21C9.35 7.46 11.58 5.22 14.32 5.22C14.6 5.22 14.82 5.44 14.82 5.72C14.82 5.99 14.6 6.22 14.32 6.22C12.13 6.22 10.35 8.01 10.35 10.21C10.35 10.48 10.13 10.71 9.85 10.71ZM10.03 12.63C9.89 12.63 9.77 12.58 9.67 12.48C9.58 12.39 9.53 12.26 9.53 12.13C9.53 12 9.58 11.87 9.67 11.77C9.86 11.59 10.19 11.59 10.38 11.77C10.47 11.87 10.53 12 10.53 12.13C10.53 12.26 10.47 12.39 10.38 12.48C10.29 12.58 10.16 12.63 10.03 12.63ZM14 35.25C11.18 35.25 1.99 34.96 1.99 31.25C1.99 25.93 5.49 21.13 10.5 19.58L11.11 19.39L11.54 19.86C13.06 21.58 14.89 21.66 16.52 19.83L16.95 19.35L17.56 19.55C22.53 21.12 26 25.93 26 31.25C26 34.96 16.81 35.25 14 35.25ZM10.52 21.68C6.65 23.15 3.99 27 3.99 31.25C3.99 31.8 7.06 33.25 14 33.25C20.93 33.25 24 31.8 24 31.25C24 27 21.37 23.14 17.53 21.65C16.46 22.66 15.27 23.18 14.04 23.18C12.78 23.18 11.57 22.66 10.52 21.68Z" />
</svg>