<svg xmlns="http://www.w3.org/2000/svg" viewBox="0 0 37 31" width="37" height="31">
	<style>
		tspan { white-space:pre }
		.shp0 { fill: #969696 } 
	</style>
	<path id="Shape 4" class="shp0" d="M18.5 29.96C12.62 29.96 1.75 25.49 1.75 19.12C1.75 12.75 12.62 8.28 18.5 8.28C24.38 8.28 35.25 12.75 35.25 19.12C35.25 25.49 24.38 29.96 18.5 29.96ZM18.5 10.29C12.94 10.29 3.75 14.42 3.75 19.12C3.75 23.82 12.94 27.95 18.5 27.95C24.06 27.95 33.25 23.82 33.25 19.12C33.25 14.42 24.06 10.29 18.5 10.29ZM18.5 24.5C15.61 24.5 13.25 22.12 13.25 19.2C13.25 16.28 15.61 13.91 18.5 13.91C21.4 13.91 23.75 16.28 23.75 19.2C23.75 22.12 21.4 24.5 18.5 24.5ZM18.5 14.92C16.16 14.92 14.25 16.84 14.25 19.2C14.25 21.57 16.16 23.49 18.5 23.49C20.84 23.49 22.75 21.57 22.75 19.2C22.75 16.84 20.84 14.92 18.5 14.92ZM16.54 17.89C16.42 17.89 16.29 17.84 16.2 17.76C15.99 17.57 15.98 17.25 16.17 17.04C16.27 16.93 16.38 16.83 16.49 16.74C16.7 16.56 17.02 16.59 17.19 16.8C17.37 17.02 17.34 17.34 17.13 17.51C17.05 17.58 16.97 17.65 16.9 17.73C16.81 17.83 16.67 17.89 16.54 17.89ZM18.5 22.4C16.75 22.4 15.33 20.97 15.33 19.2C15.33 18.93 15.56 18.7 15.83 18.7C16.11 18.7 16.33 18.93 16.33 19.2C16.33 20.41 17.31 21.39 18.5 21.39C18.78 21.39 19 21.62 19 21.89C19 22.17 18.78 22.4 18.5 22.4ZM18.44 7.02C17.89 7.02 17.44 6.56 17.44 6.01L17.44 2.98C17.44 2.42 17.89 1.97 18.44 1.97C18.99 1.97 19.44 2.42 19.44 2.98L19.44 6.01C19.44 6.56 18.99 7.02 18.44 7.02ZM12.68 7.36C12.31 7.36 11.96 7.16 11.78 6.8L10.86 4.95C10.61 4.45 10.81 3.84 11.3 3.59C11.79 3.34 12.39 3.54 12.64 4.04L13.57 5.9C13.82 6.39 13.62 7 13.13 7.25C12.98 7.32 12.83 7.36 12.68 7.36ZM6.84 9.7C6.57 9.7 6.3 9.58 6.1 9.36L4.8 7.9C4.43 7.49 4.46 6.85 4.87 6.48C5.28 6.11 5.92 6.14 6.29 6.55L7.59 8.01C7.96 8.43 7.92 9.07 7.51 9.44C7.32 9.61 7.08 9.7 6.84 9.7ZM23.79 7.36C23.64 7.36 23.49 7.32 23.34 7.25C22.85 7 22.65 6.39 22.9 5.9L23.82 4.04C24.07 3.54 24.67 3.34 25.17 3.59C25.66 3.84 25.86 4.45 25.61 4.95L24.68 6.8C24.51 7.16 24.16 7.36 23.79 7.36ZM29.62 9.7C29.39 9.7 29.15 9.61 28.96 9.44C28.55 9.07 28.51 8.43 28.88 8.01L30.18 6.55C30.55 6.14 31.18 6.11 31.59 6.48C32 6.85 32.04 7.49 31.67 7.9L30.37 9.36C30.17 9.58 29.9 9.7 29.62 9.7Z" />
</svg>