<svg xmlns="http://www.w3.org/2000/svg" viewBox="0 0 35 35" width="35" height="35">
	<style>
		tspan { white-space:pre }
		.shp0 { fill: #969696 } 
	</style>
	<path id="icon" class="shp0" d="M17.67 29.48C10.91 29.48 5.42 23.98 5.42 17.23C5.42 10.47 10.91 4.98 17.67 4.98C24.42 4.98 29.92 10.47 29.92 17.23C29.92 23.98 24.42 29.48 17.67 29.48ZM17.67 6.98C12.01 6.98 7.42 11.57 7.42 17.23C7.42 22.88 12.01 27.48 17.67 27.48C23.32 27.48 27.92 22.88 27.92 17.23C27.92 11.57 23.32 6.98 17.67 6.98ZM11.78 11.92C11.65 11.92 11.52 11.87 11.42 11.76C11.23 11.56 11.24 11.24 11.44 11.06C12.44 10.13 13.65 9.46 14.96 9.1C15.23 9.03 15.5 9.19 15.57 9.45C15.64 9.72 15.49 10 15.22 10.07C14.07 10.38 13 10.98 12.12 11.79C12.03 11.88 11.9 11.92 11.78 11.92ZM9.71 15.07C9.65 15.07 9.59 15.06 9.54 15.04C9.28 14.95 9.14 14.67 9.23 14.41C9.38 14.01 9.55 13.61 9.75 13.24C9.88 13 10.19 12.9 10.43 13.04C10.67 13.17 10.76 13.47 10.63 13.71C10.46 14.04 10.3 14.39 10.18 14.74C10.1 14.95 9.91 15.07 9.71 15.07ZM17.94 10.25C17.39 10.25 16.94 9.8 16.94 9.25L16.94 2.25C16.94 1.7 17.39 1.25 17.94 1.25C18.49 1.25 18.94 1.7 18.94 2.25L18.94 9.25C18.94 9.8 18.49 10.25 17.94 10.25ZM17.94 33.75C17.39 33.75 16.94 33.3 16.94 32.75L16.94 25.75C16.94 25.2 17.39 24.75 17.94 24.75C18.49 24.75 18.94 25.2 18.94 25.75L18.94 32.75C18.94 33.3 18.49 33.75 17.94 33.75ZM32.75 18.75L25.75 18.75C25.2 18.75 24.75 18.3 24.75 17.75C24.75 17.2 25.2 16.75 25.75 16.75L32.75 16.75C33.3 16.75 33.75 17.2 33.75 17.75C33.75 18.3 33.3 18.75 32.75 18.75ZM9.25 18.75L2.25 18.75C1.7 18.75 1.25 18.3 1.25 17.75C1.25 17.2 1.7 16.75 2.25 16.75L9.25 16.75C9.8 16.75 10.25 17.2 10.25 17.75C10.25 18.3 9.8 18.75 9.25 18.75Z" />
</svg>