<svg xmlns="http://www.w3.org/2000/svg" viewBox="0 0 24 44" width="24" height="44">
	<style>
		tspan { white-space:pre }
		.shp0 { fill: #ff431e } 
	</style>
	<path id="Shape 6" class="shp0" d="M19.08 39.89C17.18 41.78 14.67 42.83 11.99 42.84L11.53 42.84C6.01 42.86 1.53 38.38 1.54 32.86L1.57 22.9C1.58 20.22 2.63 17.71 4.52 15.81C6.42 13.91 8.94 12.87 11.61 12.86L12.08 12.86C17.6 12.84 22.08 17.32 22.06 22.84L22.03 32.8C22.03 35.47 20.98 37.99 19.08 39.89ZM5.93 17.22C4.42 18.74 3.58 20.75 3.57 22.89L3.54 32.85C3.53 37.27 7.12 40.85 11.53 40.84L12 40.84C14.14 40.83 16.15 40 17.67 38.48C19.19 36.96 20.03 34.95 20.03 32.8L20.06 22.85C20.07 18.43 16.49 14.84 12.07 14.85L11.61 14.86C9.47 14.86 7.45 15.7 5.93 17.22ZM10.06 38.99C9.95 39.1 9.79 39.16 9.62 39.13C6.35 38.54 4.67 36.11 4.74 32.09L4.75 29.88C4.75 29.6 4.98 29.37 5.25 29.37C5.53 29.37 5.75 29.6 5.75 29.87L5.74 32.1C5.68 35.62 7.04 37.65 9.8 38.14C10.07 38.19 10.25 38.45 10.2 38.72C10.18 38.83 10.13 38.92 10.06 38.99ZM11.94 39.17C11.84 39.26 11.72 39.32 11.58 39.32L11.25 39.32C10.98 39.32 10.75 39.1 10.75 38.82C10.75 38.54 10.98 38.32 11.25 38.32L11.58 38.32C11.86 38.32 12.08 38.54 12.08 38.82C12.08 38.95 12.03 39.08 11.94 39.17ZM21.41 24.8C21.35 24.86 21.29 24.9 21.21 24.92C10.78 28.34 2.71 25.1 2.37 24.96C2.12 24.86 2 24.57 2.11 24.31C2.21 24.06 2.51 23.93 2.76 24.04C2.84 24.07 10.84 27.27 20.9 23.97C21.17 23.89 21.45 24.03 21.53 24.29C21.59 24.48 21.54 24.67 21.41 24.8ZM11.92 23.2C11.83 23.3 11.7 23.35 11.57 23.35C11.29 23.35 11.07 23.13 11.07 22.85L11.07 20.35C11.08 20.08 11.3 19.85 11.58 19.85C11.85 19.85 12.07 20.08 12.07 20.35L12.07 22.85C12.07 22.99 12.01 23.11 11.92 23.2ZM13.22 14.57C12.85 14.94 12.26 14.97 11.86 14.63C11.76 14.54 9.43 12.48 11.02 7.83C11.86 5.38 10.54 2.97 10.53 2.95C10.26 2.47 10.44 1.86 10.92 1.58C11.4 1.31 12.01 1.48 12.28 1.97C12.35 2.1 14.04 5.19 12.91 8.47C11.77 11.8 13.15 13.09 13.16 13.1C13.58 13.46 13.63 14.09 13.27 14.51C13.25 14.53 13.24 14.55 13.22 14.57Z" />
</svg>