<svg xmlns="http://www.w3.org/2000/svg" viewBox="0 0 16 16" width="16" height="16">
	<style>
		tspan { white-space:pre }
		.shp0 { fill: #ff431e } 
	</style>
	<path id="группа" class="shp0" d="M3.5 2C4.88 2 6 3.12 6 4.5C6 5.88 4.88 7 3.5 7C2.12 7 1 5.88 1 4.5C1 3.12 2.12 2 3.5 2ZM11.5 2C12.88 2 14 3.12 14 4.5C14 5.88 12.88 7 11.5 7C10.12 7 9 5.88 9 4.5C9 3.12 10.12 2 11.5 2ZM3.5 10C4.88 10 6 11.12 6 12.5C6 13.88 4.88 15 3.5 15C2.12 15 1 13.88 1 12.5C1 11.12 2.12 10 3.5 10ZM11.5 10C12.88 10 14 11.12 14 12.5C14 13.88 12.88 15 11.5 15C10.12 15 9 13.88 9 12.5C9 11.12 10.12 10 11.5 10Z" />
</svg>